<svg width="85" height="53" viewBox="0 0 85 53" fill="none" xmlns="http://www.w3.org/2000/svg">
<path d="M58.9258 10.0059C67.8417 10.2317 75 17.5297 75 26.5C75 35.4703 67.8417 42.7683 58.9258 42.9941L58.5 43H26.5C17.3873 43 10 35.6127 10 26.5C10 17.3873 17.3873 10 26.5 10H58.5L58.9258 10.0059ZM26.5 12C18.4919 12 12 18.4919 12 26.5C12 34.5081 18.4919 41 26.5 41H58.5C66.5081 41 73 34.5081 73 26.5C73 18.4919 66.5081 12 58.5 12H26.5ZM37 26.5H53C53.2761 26.5 53.5 26.7239 53.5 27C53.5 27.2761 53.2761 27.5 53 27.5H37V29.8867L32 27L37 24.1133V26.5Z" fill="white"/>
</svg>
